<?xml version="1.0" encoding="UTF-8"?>
<svg version="1.1" xmlns="http://www.w3.org/2000/svg" width="1166" height="233">
<path d="M0 0 C11.55 0 23.1 0 35 0 C40.05669643 8.21713171 44.97255984 16.3803807 49.625 24.8125 C54.2867611 33.19926616 59.02056193 41.53575224 63.875 49.8125 C68.92692259 58.42902396 73.92566797 67.07420554 78.875 75.75 C79.20836365 76.33431793 79.54172729 76.91863586 79.88519287 77.5206604 C81.5800349 80.4919198 83.27407984 83.46363272 84.96777344 86.43554688 C87.97507296 91.71157422 90.98932859 96.98362612 94.00311279 102.25595093 C95.66382257 105.1613542 97.3240758 108.06701834 98.984375 110.97265625 C99.65038843 112.13818485 100.31640406 113.30371219 100.98242188 114.46923828 C110.98828125 131.97949219 120.99414062 149.48974609 131 167 C131.33 111.89 131.66 56.78 132 0 C142.89 0 153.78 0 165 0 C165 74.25 165 148.5 165 225 C152.79 225 140.58 225 128 225 C118.29459204 208.20217854 108.63140823 191.38174229 99.01611328 174.53222656 C96.01266824 169.2695208 93.00570035 164.00882814 89.99899292 158.74798584 C88.33251718 155.83207328 86.66627018 152.91603002 85 150 C84.33333443 148.83333271 83.66666776 147.66666604 83 146.5 C81.66666667 144.16666667 80.33333333 141.83333333 79 139.5 C78.67000504 138.92251007 78.34001007 138.34502014 78.00001526 137.75003052 C77.33329335 136.58326463 76.66657582 135.41649624 75.99986267 134.24972534 C74.33407716 131.33455622 72.66821573 128.41943053 71.00219727 125.50439453 C67.9922029 120.23762847 64.98273947 114.97056298 61.97616577 109.70184326 C60.9576069 107.91700625 59.93879787 106.13231224 58.91992188 104.34765625 C57.67725492 102.17084655 56.43500229 99.99380022 55.19335938 97.81640625 C48.17186593 85.51922144 41.07660606 73.26611717 34 61 C33.67 115.12 33.34 169.24 33 225 C22.11 225 11.22 225 0 225 C0 150.75 0 76.5 0 0 Z " fill="#FD00AD" transform="translate(162,4)"/>
<path d="M0 0 C-0.42128369 8.33698247 -0.96993377 16.64407521 -1.9375 24.9375 C-2.01210449 25.62908203 -2.08670898 26.32066406 -2.16357422 27.03320312 C-2.36953639 28.69943292 -2.67563234 30.3527211 -3 32 C-3.99 32.495 -3.99 32.495 -5 33 C-7.34186855 32.14950042 -9.5924587 31.2389039 -11.875 30.25 C-37.91176691 19.46675184 -70.66909461 17.66651322 -96.97265625 28.55859375 C-115.34793436 37.30759713 -128.06949936 51.91999367 -135 71 C-137.63275445 79.7572202 -139.67040475 88.84298404 -140 98 C-140.03996094 99.04027344 -140.07992187 100.08054687 -140.12109375 101.15234375 C-140.56202797 124.21060976 -135.61157281 148.77168513 -119.18676758 165.94091797 C-104.10715999 181.07448224 -85.04694379 187.96813594 -63.81030273 188.18994141 C-63.08915283 188.18913574 -62.36800293 188.18833008 -61.625 188.1875 C-60.85551025 188.18669434 -60.08602051 188.18588867 -59.29321289 188.18505859 C-53.63771077 188.12653559 -48.0582611 187.74419622 -42.4375 187.125 C-41.72480957 187.04660889 -41.01211914 186.96821777 -40.27783203 186.88745117 C-35.04596853 186.25130829 -30.19919896 185.15537755 -25 184 C-25 163.21 -25 142.42 -25 121 C-40.51 121 -56.02 121 -72 121 C-72 110.77 -72 100.54 -72 90 C-45.27 90 -18.54 90 9 90 C9 128.61 9 167.22 9 207 C-9.51423591 213.94283847 -9.51423591 213.94283847 -18.0625 215.75 C-18.91392578 215.94464844 -19.76535156 216.13929688 -20.64257812 216.33984375 C-33.81959334 219.24209839 -46.86246813 220.38539356 -60.3125 220.3125 C-61.03333771 220.31034485 -61.75417542 220.3081897 -62.49685669 220.30596924 C-90.6976754 220.17101656 -117.73408895 213.52991831 -139 194 C-139.4856543 193.56204102 -139.97130859 193.12408203 -140.47167969 192.67285156 C-163.96956662 171.28781253 -173.43383708 142.20866114 -175 111 C-176.47766769 79.07342237 -167.68340016 47.08344453 -145.984375 23.1796875 C-133.07058345 9.32477679 -117.2050779 -0.67811663 -99 -6 C-98.33564941 -6.20737793 -97.67129883 -6.41475586 -96.98681641 -6.62841797 C-68.39662013 -15.19667153 -26.89537858 -13.44768929 0 0 Z " fill="#FD00AD" transform="translate(550,11)"/>
<path d="M0 0 C10.89 0 21.78 0 33 0 C33 30.69 33 61.38 33 93 C63.36 93 93.72 93 125 93 C125 62.31 125 31.62 125 0 C135.89 0 146.78 0 158 0 C158 74.25 158 148.5 158 225 C147.11 225 136.22 225 125 225 C125 192 125 159 125 125 C94.64 125 64.28 125 33 125 C33 158 33 191 33 225 C22.11 225 11.22 225 0 225 C0 150.75 0 76.5 0 0 Z " fill="#FD00AE" transform="translate(1008,4)"/>
<path d="M0 0 C36.63 0 73.26 0 111 0 C111 10.23 111 20.46 111 31 C85.26 31 59.52 31 33 31 C33 51.46 33 71.92 33 93 C57.42 93 81.84 93 107 93 C107 103.23 107 113.46 107 124 C82.58 124 58.16 124 33 124 C33 146.77 33 169.54 33 193 C60.06 193 87.12 193 115 193 C115 203.23 115 213.46 115 224 C114 225 114 225 112.09657192 225.12304783 C111.25681851 225.12212604 110.41706511 225.12120424 109.55186462 225.12025452 C108.59328269 225.12163201 107.63470076 225.12300951 106.64707088 225.12442875 C105.58267568 225.12083064 104.51828047 225.11723253 103.42163086 225.11352539 C102.29152116 225.11364593 101.16141146 225.11376646 99.99705601 225.11389065 C96.31963226 225.1131411 92.64225849 225.10551097 88.96484375 225.09765625 C86.70218938 225.09618696 84.43953466 225.09516617 82.17687988 225.09460449 C73.76374809 225.0893501 65.35062356 225.07538904 56.9375 225.0625 C38.148125 225.041875 19.35875 225.02125 0 225 C0 150.75 0 76.5 0 0 Z " fill="#FD00AD" transform="translate(0,4)"/>
<path d="M0 0 C1.23582596 3.70747787 0.69116014 5.79815436 0.00390625 9.63671875 C-0.33930664 11.58481445 -0.33930664 11.58481445 -0.68945312 13.57226562 C-0.93864311 14.9440393 -1.18799414 16.31578374 -1.4375 17.6875 C-1.68361832 19.07084351 -1.92906904 20.45430598 -2.17382812 21.83789062 C-2.77598341 25.22648995 -3.38497338 28.61371721 -4 32 C-9.2555376 30.98850202 -14.30406868 29.4695531 -19.4296875 27.9375 C-35.68441687 23.66929973 -56.73516415 23.3410524 -71.953125 30.98046875 C-78.17975685 34.68319886 -80.66167809 39.77565414 -82.453125 46.5234375 C-83.92533442 53.19044301 -82.86447029 57.57055587 -79.65234375 63.4609375 C-73.34350069 73.15537719 -63.57343823 78.95661461 -54 85 C-52.23421402 86.11953781 -50.46859802 87.23934373 -48.703125 88.359375 C-47.78031738 88.94444824 -46.85750977 89.52952148 -45.90673828 90.13232422 C-41.26486487 93.07841967 -36.62977889 96.03493832 -32 99 C-31.22881836 99.49145508 -30.45763672 99.98291016 -29.66308594 100.48925781 C-11.85473651 111.92088832 3.23232377 125.85185381 9 147 C12.55863969 163.97567313 10.15944237 181.67115706 0.83203125 196.359375 C-9.8083396 211.69602893 -26.81878324 221.25046123 -45 225 C-69.43109645 229.3780035 -93.12748232 224.36816178 -116 216 C-114.99500612 204.60737649 -113.9661995 193.27427159 -112 182 C-108.22764438 182.61964686 -105.10175997 183.73968001 -101.625 185.3125 C-83.15841625 193.17789678 -60.36593194 196.80129345 -41 190 C-33.78038621 186.74222386 -28.11643897 181.40207225 -25.125 174 C-23.06247602 166.68741499 -22.41073207 158.24368351 -25.1015625 151.05859375 C-30.50780197 141.59044709 -38.75396928 135.46510793 -47.625 129.4375 C-48.62974365 128.74640137 -49.6344873 128.05530273 -50.66967773 127.34326172 C-57.42696689 122.70990382 -64.23734595 118.15754926 -71.0625 113.625 C-73.60618049 111.93204798 -76.14907103 110.23793937 -78.69042969 108.54150391 C-80.16105771 107.5599452 -81.6329305 106.58024706 -83.10644531 105.60302734 C-98.53312428 95.31218208 -110.83317635 82.11171812 -115.5859375 63.734375 C-118.22820389 46.285446 -114.71395859 30.9715132 -104.328125 16.703125 C-93.36011794 3.11029574 -75.43215743 -4.66212732 -58.43017578 -6.77294922 C-39.87512982 -8.50654303 -17.26511418 -8.06891934 0 0 Z " fill="#FD00AD" transform="translate(950,7)"/>
<path d="M0 0 C1.0374939 0.00303635 1.0374939 0.00303635 2.09594727 0.00613403 C2.80243408 0.00517731 3.5089209 0.00422058 4.23681641 0.00323486 C5.7331552 0.00255321 7.22949694 0.00440649 8.72583008 0.00857544 C11.02374884 0.01392396 13.32147213 0.00863003 15.61938477 0.00222778 C17.06990603 0.00288857 18.52042718 0.00416974 19.97094727 0.00613403 C20.66260986 0.0041098 21.35427246 0.00208557 22.06689453 0 C26.91849503 0.0239943 26.91849503 0.0239943 28.03344727 1.13894653 C28.13115421 3.60525925 28.16340825 6.04353651 28.15370178 8.51029968 C28.15455621 9.29111261 28.15541063 10.07192553 28.15629095 10.87639946 C28.15794812 13.51284744 28.15242053 16.14923286 28.14697266 18.78567505 C28.14669081 20.66757201 28.14684847 22.54946907 28.14741516 24.43136597 C28.14770324 29.55718588 28.14180494 34.68298262 28.1348412 39.80879712 C28.12860928 45.15931917 28.128004 50.5098417 28.1268158 55.86036682 C28.123702 65.99993011 28.11548797 76.13948267 28.10546631 86.27904123 C28.09430666 97.81935127 28.08879509 109.35966181 28.08377087 120.8999759 C28.07330539 144.64630676 28.05495931 168.39262292 28.03344727 192.13894653 C54.43344727 192.13894653 80.83344727 192.13894653 108.03344727 192.13894653 C108.03344727 202.36894653 108.03344727 212.59894653 108.03344727 223.13894653 C70.41344727 223.13894653 32.79344727 223.13894653 -5.96655273 223.13894653 C-6.00685577 167.50732497 -6.00685577 167.50732497 -6.01538086 144.27371216 C-6.01734465 138.9642232 -6.01935939 133.65473426 -6.02148438 128.34524536 C-6.02174812 127.67974554 -6.02201187 127.01424573 -6.02228361 126.32857925 C-6.02663832 115.57081626 -6.0345251 104.81305858 -6.04370553 94.05529875 C-6.05304206 83.02298313 -6.05853344 71.99067045 -6.06064123 60.95835108 C-6.06194875 54.75828589 -6.06503721 48.55823279 -6.07228279 42.35817146 C-6.07903917 36.52983467 -6.08117048 30.701515 -6.07966042 24.87317467 C-6.07993692 22.72727999 -6.08194429 20.58138478 -6.08575821 18.43549347 C-6.0906895 15.51936735 -6.08955312 12.60330701 -6.08680725 9.68717957 C-6.09117651 8.39586305 -6.09117651 8.39586305 -6.09563404 7.07845932 C-6.07753315 0.03005732 -6.07753315 0.03005732 0 0 Z " fill="#FE00AD" transform="translate(620.966552734375,3.861053466796875)"/>
<path d="M0 0 C11.22 0 22.44 0 34 0 C34 73.59 34 147.18 34 223 C22.78 223 11.56 223 0 223 C0 149.41 0 75.82 0 0 Z " fill="#FD00AD" transform="translate(759,4)"/>
</svg>
