<?xml version="1.0" standalone="no"?>
<!DOCTYPE svg PUBLIC "-//W3C//DTD SVG 20010904//EN"
 "http://www.w3.org/TR/2001/REC-SVG-20010904/DTD/svg10.dtd">
<svg version="1.0" xmlns="http://www.w3.org/2000/svg"
 width="1166.000000pt" height="233.000000pt" viewBox="0 0 1166.000000 233.000000"
 preserveAspectRatio="xMidYMid meet">

<g transform="translate(0.000000,233.000000) scale(0.100000,-0.100000)"
fill="#000000" stroke="none">
<path d="M4711 2310 c-453 -58 -800 -359 -910 -793 -75 -291 -45 -653 73 -903
59 -125 114 -201 217 -299 181 -173 386 -261 668 -285 241 -21 583 27 775 109
l46 20 0 581 0 580 -395 0 -395 0 0 -155 0 -155 230 0 230 0 0 -318 0 -319
-37 -11 c-137 -41 -458 -42 -593 -3 -125 37 -205 85 -301 181 -71 71 -94 102
-133 181 -77 157 -90 221 -90 449 0 169 3 206 22 274 64 231 203 401 407 496
120 57 204 73 375 72 205 0 399 -36 513 -94 22 -11 41 -18 43 -16 6 6 42 303
37 310 -8 14 -194 68 -285 83 -114 19 -397 27 -497 15z"/>
<path d="M8845 2303 c-305 -65 -499 -286 -497 -568 0 -109 25 -196 80 -281 72
-109 124 -156 349 -309 325 -221 371 -255 421 -310 68 -75 86 -123 79 -210
-11 -148 -83 -242 -219 -286 -140 -45 -364 -26 -553 47 -49 20 -97 37 -106 40
-13 5 -18 -19 -33 -150 -10 -86 -15 -160 -11 -165 9 -16 185 -69 281 -86 114
-20 323 -19 421 1 210 43 382 162 466 322 50 95 67 168 67 287 0 189 -51 307
-194 450 -76 76 -131 117 -331 245 -335 216 -405 287 -405 409 0 126 64 213
186 251 135 42 364 35 523 -15 41 -13 77 -23 79 -21 3 4 52 265 52 283 0 15
-108 49 -218 68 -109 19 -344 18 -437 -2z"/>
<path d="M7 2283 c-4 -3 -7 -507 -7 -1120 l0 -1113 570 0 570 0 0 155 0 155
-405 0 -405 0 0 345 0 345 365 0 365 0 0 155 0 155 -365 0 -365 0 0 310 0 310
390 0 391 0 -3 153 -3 152 -546 3 c-300 1 -549 -1 -552 -5z"/>
<path d="M1627 2284 c-4 -4 -7 -508 -7 -1121 l0 -1113 160 0 160 0 0 838 c1
668 3 834 13 821 7 -9 224 -386 482 -838 l470 -821 178 0 177 0 0 1120 0 1121
-157 -3 -158 -3 -5 -847 -5 -847 -485 847 -485 847 -166 3 c-91 1 -168 -1
-172 -4z"/>
<path d="M10087 2283 c-4 -3 -7 -507 -7 -1120 l0 -1113 165 0 165 0 0 500 0
500 460 0 460 0 0 -500 0 -500 160 0 160 0 0 1120 0 1120 -160 0 -160 0 0
-470 0 -470 -460 0 -460 0 0 470 0 470 -158 0 c-87 0 -162 -3 -165 -7z"/>
<path d="M6160 1170 l0 -1110 560 0 560 0 0 155 0 155 -400 0 -400 0 0 955 0
955 -160 0 -160 0 0 -1110z"/>
<path d="M7600 1170 l0 -1110 160 0 160 0 0 1110 0 1110 -160 0 -160 0 0
-1110z"/>
</g>
</svg>
