<?xml version="1.0" standalone="no"?>
<!DOCTYPE svg PUBLIC "-//W3C//DTD SVG 20010904//EN"
 "http://www.w3.org/TR/2001/REC-SVG-20010904/DTD/svg10.dtd">
<svg version="1.0" xmlns="http://www.w3.org/2000/svg"
 width="1379.000000pt" height="784.000000pt" viewBox="0 0 1379.000000 784.000000"
 preserveAspectRatio="xMidYMid meet">

<g transform="translate(0.000000,784.000000) scale(0.100000,-0.100000)"
fill="#000000" stroke="none">
<path d="M13545 7724 c-11 -3 -139 -27 -285 -55 -449 -86 -847 -231 -1114
-406 -99 -65 -263 -231 -314 -318 -99 -168 -132 -359 -97 -570 36 -219 105
-394 335 -850 262 -519 315 -668 308 -871 -4 -102 -7 -116 -40 -185 -43 -91
-104 -160 -200 -226 -240 -166 -623 -280 -1201 -357 -255 -35 -318 -39 -349
-27 -15 6 -56 50 -98 108 -91 123 -284 316 -415 414 -511 382 -1186 607 -2010
669 -208 16 -655 13 -878 -5 -233 -20 -500 -55 -713 -94 -88 -17 -241 -44
-342 -61 -1897 -318 -4046 -1345 -5241 -2505 -425 -412 -678 -802 -767 -1180
-22 -94 -15 -257 14 -338 39 -110 197 -295 377 -445 213 -177 525 -281 935
-313 206 -16 770 -6 1225 21 882 51 1228 70 1465 80 416 16 954 55 1335 96 77
8 199 19 270 24 122 8 484 63 955 146 248 43 599 117 850 179 1851 458 3007
1255 3205 2210 38 182 29 429 -21 603 -30 103 -31 147 -4 162 11 6 91 20 178
31 811 102 1329 296 1547 578 183 239 192 528 28 931 -19 47 -110 236 -203
420 -187 374 -245 503 -289 647 -138 451 4 730 490 962 263 126 669 238 1141
316 52 8 61 29 48 107 -5 35 -10 66 -10 70 0 4 -7 14 -16 22 -15 15 -54 19
-99 10z m-5630 -2884 c667 -34 1216 -170 1693 -420 456 -240 780 -586 900
-960 42 -133 56 -239 49 -389 -31 -703 -724 -1369 -1917 -1844 -865 -344
-1986 -587 -3300 -716 -215 -22 -579 -50 -715 -57 -171 -8 -173 -7 -205 111
-80 304 -306 674 -686 1124 -210 249 -208 246 -233 324 -82 256 -336 615 -785
1107 -160 174 -165 183 -139 219 39 53 664 379 1083 564 841 372 1680 631
2508 773 114 19 266 46 337 59 500 93 964 127 1410 105z m-5450 -1772 c399
-416 726 -849 810 -1072 46 -123 31 -180 -72 -258 -378 -291 -1201 -554 -2181
-698 -275 -40 -602 -75 -633 -67 -39 10 -53 53 -46 140 44 514 691 1238 1716
1918 286 191 261 188 406 37z m1118 -1538 c124 -146 320 -408 397 -532 90
-144 172 -308 205 -409 31 -95 29 -134 -9 -148 -12 -5 -117 -14 -232 -21 -115
-6 -519 -29 -899 -51 -1028 -60 -1535 -64 -1827 -14 -250 44 -464 142 -621
285 -59 54 -71 86 -42 110 8 6 117 25 242 40 1173 147 2162 454 2563 795 55
47 70 55 100 53 30 -3 45 -15 123 -108z"/>
</g>
</svg>
