<?xml version="1.0" standalone="no"?>
<!DOCTYPE svg PUBLIC "-//W3C//DTD SVG 20010904//EN"
 "http://www.w3.org/TR/2001/REC-SVG-20010904/DTD/svg10.dtd">
<svg version="1.0" xmlns="http://www.w3.org/2000/svg"
 width="1184.000000pt" height="233.000000pt" viewBox="0 0 1184.000000 233.000000"
 preserveAspectRatio="xMidYMid meet">

<g transform="translate(0.000000,233.000000) scale(0.100000,-0.100000)"
fill="#000000" stroke="none">
<path d="M520 2306 c-141 -32 -249 -87 -343 -175 -139 -132 -200 -341 -152
-526 46 -175 150 -284 494 -514 259 -174 366 -264 402 -337 18 -39 21 -58 17
-128 -10 -186 -107 -280 -317 -307 -147 -18 -374 22 -511 91 l-59 30 -6 -43
c-21 -155 -33 -283 -27 -289 16 -15 194 -68 282 -84 72 -12 134 -15 255 -11
182 5 243 19 380 90 339 176 428 609 190 917 -78 100 -111 125 -433 334 -240
156 -309 213 -346 288 -41 82 -30 185 29 262 98 129 419 152 720 52 19 -7 22
2 46 142 l25 149 -65 21 c-112 36 -234 52 -385 51 -77 -1 -166 -7 -196 -13z"/>
<path d="M2645 2314 c-140 -19 -191 -29 -260 -51 -381 -119 -653 -440 -720
-853 -31 -191 -16 -455 35 -639 97 -348 374 -617 725 -706 245 -62 606 -51
809 25 l58 22 -6 57 c-3 31 -8 100 -12 153 -4 54 -8 98 -9 98 -1 0 -28 -11
-61 -24 -121 -49 -204 -61 -414 -61 -173 0 -204 3 -273 23 -247 71 -415 233
-496 477 -89 268 -60 598 71 820 50 84 172 207 251 254 85 50 208 88 322 101
158 16 416 -10 546 -55 23 -8 45 -15 49 -15 4 0 10 42 14 93 4 50 9 117 13
148 l5 57 -56 21 c-31 12 -96 28 -144 36 -84 15 -385 28 -447 19z"/>
<path d="M9435 2314 c-215 -30 -298 -54 -436 -126 -303 -157 -500 -454 -550
-826 -16 -122 -6 -393 20 -502 114 -492 452 -784 963 -830 205 -19 446 6 592
61 l58 21 -6 67 c-3 36 -9 105 -12 154 -4 48 -8 87 -10 87 -1 0 -24 -9 -51
-21 -100 -43 -201 -60 -379 -66 -187 -6 -285 7 -397 52 -228 91 -384 285 -443
547 -21 93 -25 356 -6 443 81 371 321 596 677 634 156 17 383 -4 532 -50 36
-11 66 -19 68 -17 8 8 25 292 18 298 -15 15 -103 40 -191 55 -84 15 -385 28
-447 19z"/>
<path d="M4707 2283 c-4 -3 -7 -507 -7 -1120 l0 -1113 570 0 570 0 0 155 0
155 -405 0 -405 0 0 345 0 345 370 0 371 0 -3 153 -3 152 -367 3 -368 2 0 310
0 310 390 0 390 0 0 155 0 155 -548 0 c-302 0 -552 -3 -555 -7z"/>
<path d="M6327 2283 c-4 -3 -7 -507 -7 -1120 l0 -1113 160 0 160 0 0 836 c0
459 4 833 8 830 4 -3 222 -378 483 -835 l474 -830 178 -1 177 0 0 1120 0 1121
-157 -3 -158 -3 -5 -847 -5 -846 -474 828 c-260 456 -480 838 -488 849 -13 20
-24 21 -177 21 -89 0 -166 -3 -169 -7z"/>
<path d="M10700 1170 l0 -1120 565 0 565 0 0 155 0 155 -405 0 -405 0 0 345 0
345 370 0 370 0 0 155 0 155 -370 0 -370 0 0 310 0 310 390 0 390 0 0 155 0
155 -550 0 -550 0 0 -1120z"/>
<path d="M3870 1170 l0 -1110 165 0 165 0 0 1110 0 1110 -165 0 -165 0 0
-1110z"/>
</g>
</svg>
