<?xml version="1.0" encoding="UTF-8"?>
<svg version="1.1" xmlns="http://www.w3.org/2000/svg" width="1184" height="233">
<path d="M0 0 C11.55 0 23.1 0 35 0 C41.7403709 10.11055635 41.7403709 10.11055635 44.375 14.94140625 C44.96039551 16.00713867 45.54579102 17.07287109 46.14892578 18.17089844 C47.06520752 19.84974121 47.06520752 19.84974121 48 21.5625 C49.32711484 23.97726279 50.65865215 26.38955883 51.9921875 28.80078125 C52.32733368 29.40683197 52.66247986 30.01288269 53.00778198 30.63729858 C56.29282119 36.55941464 59.69447791 42.41107004 63.125 48.25 C67.65494456 55.96117802 72.11813766 63.70367359 76.5 71.5 C80.90504225 79.33638759 85.38843073 87.12136415 89.9375 94.875 C95.32215604 104.05637582 100.55728029 113.31232392 105.73217773 122.61328125 C110.4465145 131.06502066 115.29345323 139.43414318 120.20703125 147.77148438 C120.74714844 148.68994141 121.28726563 149.60839844 121.84375 150.5546875 C122.30974609 151.34343262 122.77574219 152.13217773 123.25585938 152.94482422 C125.90785682 157.5902744 128.43855296 162.30401375 131 167 C131.33 111.89 131.66 56.78 132 0 C142.89 0 153.78 0 165 0 C165 74.25 165 148.5 165 225 C152.79 225 140.58 225 128 225 C103 181.25 103 181.25 78 137.5 C77.67001007 136.92252014 77.34002014 136.34504028 77.00003052 135.75006104 C76.33325336 134.58319593 75.66648497 133.41632581 74.99972534 132.24945068 C73.33482094 129.33577909 71.66976514 126.42219422 70.00439453 123.50878906 C66.98375054 118.22411675 63.96422167 112.93882307 60.95037842 107.65026855 C59.58585128 105.25608358 58.22043921 102.86240376 56.85498047 100.46875 C55.93763561 98.85985419 55.02150749 97.25026481 54.10546875 95.640625 C47.48841192 84.04283342 40.72921723 72.53580097 34 61 C33.67 115.12 33.34 169.24 33 225 C22.11 225 11.22 225 0 225 C0 150.75 0 76.5 0 0 Z " fill="#FD00AE" transform="translate(632,4)"/>
<path d="M0 0 C36.96 0 73.92 0 112 0 C112 10.23 112 20.46 112 31 C86.26 31 60.52 31 34 31 C34 51.46 34 71.92 34 93 C58.42 93 82.84 93 108 93 C108 103.23 108 113.46 108 124 C83.58 124 59.16 124 34 124 C34 146.77 34 169.54 34 193 C60.73 193 87.46 193 115 193 C115 203.56 115 214.12 115 225 C77.05 225 39.1 225 0 225 C0 150.75 0 76.5 0 0 Z " fill="#FD00AD" transform="translate(1069,4)"/>
<path d="M0 0 C36.63 0 73.26 0 111 0 C111 10.23 111 20.46 111 31 C85.26 31 59.52 31 33 31 C33 51.46 33 71.92 33 93 C57.42 93 81.84 93 107 93 C107 103.23 107 113.46 107 124 C82.58 124 58.16 124 33 124 C33 146.77 33 169.54 33 193 C60.06 193 87.12 193 115 193 C115 203.56 115 214.12 115 225 C77.05 225 39.1 225 0 225 C0 150.75 0 76.5 0 0 Z " fill="#FE00AE" transform="translate(470,4)"/>
<path d="M0 0 C2.46573546 0.01606184 4.9298218 0.0000519 7.39550781 -0.01904297 C21.50597486 -0.03759348 39.53897498 0.12254535 52.09863281 7.39111328 C53.19082922 10.66770251 53.07474178 12.5942079 52.79394531 16.01220703 C52.705 17.11242187 52.61605469 18.21263672 52.52441406 19.34619141 C52.42515625 20.49539062 52.32589844 21.64458984 52.22363281 22.82861328 C52.08634766 24.54661133 52.08634766 24.54661133 51.94628906 26.29931641 C51.17420045 35.59156599 51.17420045 35.59156599 50.09863281 39.39111328 C49.18726563 39.13716797 48.27589844 38.88322266 47.33691406 38.62158203 C17.39523748 30.54689149 -15.06901015 27.46936501 -43.02636719 43.14111328 C-61.83309199 54.99687259 -71.84435441 73.20352642 -76.90136719 94.39111328 C-81.68578751 119.46875544 -78.07036406 147.44991238 -63.76464844 168.80126953 C-51.65508698 185.63279834 -34.89062197 194.03442263 -14.74511719 197.79345703 C5.11471213 200.58147153 25.24523966 197.64883526 44.09863281 191.39111328 C45.24847656 191.00955078 46.39832031 190.62798828 47.58300781 190.23486328 C48.41316406 189.95642578 49.24332031 189.67798828 50.09863281 189.39111328 C51.12174392 192.88393214 51.38664828 196.28200673 51.63378906 199.90673828 C51.72080078 201.15712891 51.8078125 202.40751953 51.89746094 203.69580078 C52.02797852 205.64873047 52.02797852 205.64873047 52.16113281 207.64111328 C52.25260176 208.97186503 52.3443951 210.30259452 52.43652344 211.63330078 C52.66042049 214.88570005 52.88099651 218.13829006 53.09863281 221.39111328 C40.62174648 226.82501063 40.62174648 226.82501063 33.84863281 228.14111328 C32.75035156 228.36283203 31.65207031 228.58455078 30.52050781 228.81298828 C21.0691839 230.4097873 11.78663036 230.63375713 2.22363281 230.64111328 C1.04661804 230.6421254 1.04661804 230.6421254 -0.1541748 230.64315796 C-31.67250522 230.60003847 -59.37800036 222.01289164 -82.58886719 200.14111328 C-106.41117535 175.26974934 -113.44121007 142.4872302 -113.11621094 109.05908203 C-112.38145665 76.94438675 -100.17346948 49.73101525 -77.56542969 27.04736328 C-56.37789896 7.02548958 -28.42037917 -0.21896381 0 0 Z " fill="#FD00AD" transform="translate(276.9013671875,0.60888671875)"/>
<path d="M0 0 C2.50997307 0.00313837 5.01873793 -0.02030251 7.52856445 -0.0456543 C40.62241275 -0.17467712 40.62241275 -0.17467712 52.47583008 7.31567383 C53.73711482 10.69286575 53.44928036 13.77167227 53.17114258 17.32348633 C53.08219727 18.47461914 52.99325195 19.62575195 52.90161133 20.81176758 C52.80235352 22.00930664 52.7030957 23.2068457 52.60083008 24.44067383 C52.46354492 26.24858398 52.46354492 26.24858398 52.32348633 28.09301758 C51.6099464 37.04744118 51.6099464 37.04744118 50.47583008 39.31567383 C49.56446289 39.06172852 48.6530957 38.8077832 47.71411133 38.54614258 C17.76653532 30.46986107 -14.58695593 27.44289321 -42.58666992 43.00317383 C-61.92127582 55.2112423 -71.54369112 73.56270022 -76.52416992 95.31567383 C-81.21529365 120.06135147 -77.66218265 147.80198555 -63.35229492 168.83129883 C-52.36307324 183.76536931 -36.87726083 193.66400224 -18.53198242 197.01489258 C-17.8694043 197.11415039 -17.20682617 197.2134082 -16.52416992 197.31567383 C-15.8822168 197.42524414 -15.24026367 197.53481445 -14.57885742 197.64770508 C4.01274002 200.29859825 23.73637363 198.18385904 41.47583008 192.31567383 C42.8931543 191.85741211 42.8931543 191.85741211 44.33911133 191.38989258 C46.3907352 190.71665364 48.43452239 190.01957303 50.47583008 189.31567383 C51.91498623 192.19398613 51.80876831 194.86496047 52.01098633 198.07348633 C52.05396347 198.73653778 52.09694061 199.39958923 52.14122009 200.08273315 C52.2776384 202.20181106 52.40805289 204.32121037 52.53833008 206.44067383 C52.62973198 207.87689694 52.72152401 209.31309527 52.8137207 210.74926758 C53.03895256 214.27112673 53.25880122 217.79329859 53.47583008 221.31567383 C47.84674384 224.36689444 42.7353242 226.23738875 36.47583008 227.50317383 C35.72043945 227.6675293 34.96504883 227.83188477 34.18676758 228.0012207 C24.39001614 230.08008463 14.84391896 230.53055205 4.85253906 230.5559082 C2.57489136 230.56551954 0.2981852 230.59656682 -1.97924805 230.62817383 C-30.53598494 230.83432966 -56.95421972 222.16397823 -78.52416992 203.31567383 C-79.66112305 202.33147461 -79.66112305 202.33147461 -80.82104492 201.32739258 C-102.8325987 180.76860135 -111.57770049 149.95021603 -112.80932617 120.75708008 C-113.63795452 87.33968245 -104.78980745 56.45094456 -81.78979492 31.65161133 C-59.85152294 9.03249643 -30.992586 -0.08062432 0 0 Z " fill="#FD00AD" transform="translate(955.524169921875,0.684326171875)"/>
<path d="M0 0 C0.495 0.495 0.495 0.495 1 1 C0.81747557 8.11570109 -0.67948949 15.16596478 -2.0625 22.125 C-2.24876953 23.08148437 -2.43503906 24.03796875 -2.62695312 25.0234375 C-3.08059056 27.34978331 -3.53832038 29.67523936 -4 32 C-4.64066406 31.80301514 -5.28132813 31.60603027 -5.94140625 31.40307617 C-18.53519195 27.57074589 -30.08406179 25.71767832 -43.25 25.625 C-44.32636719 25.61122314 -45.40273437 25.59744629 -46.51171875 25.58325195 C-57.38544374 25.64563945 -68.8566135 27.15575831 -77 35 C-81.69495113 41.08359865 -82.82873331 47.31888433 -82.46484375 54.8984375 C-81.0961477 64.03074562 -74.95944259 70.01637092 -67.92236328 75.57958984 C-62.27015602 79.75593501 -56.21850144 83.36896182 -50.2578125 87.08203125 C2.65943887 120.0642374 2.65943887 120.0642374 9.77734375 149.1796875 C12.70757001 164.84586448 10.61474411 182.15131554 1.7421875 195.63671875 C-10.70324787 212.51897973 -27.57080612 221.85488231 -48.1171875 225.5625 C-71.14604928 228.15730133 -93.64730972 224.82577865 -115 216 C-115.19018656 208.52725321 -114.4488891 201.34481897 -113.5 193.9375 C-113.35691406 192.78572266 -113.21382813 191.63394531 -113.06640625 190.44726562 C-112.71581648 187.63086114 -112.36024128 184.81518341 -112 182 C-107.80699006 182.76409901 -104.3443651 184.0882411 -100.4375 185.8125 C-82.66188397 193.17973256 -59.43103121 197.23105354 -41 190 C-34.57378342 187.01316694 -29.01154347 183.61070517 -26 177 C-22.99786911 168.26209058 -21.0638228 159.75252461 -24.875 151.0625 C-32.13534033 138.16402073 -45.00294045 130.9281234 -57.00830078 122.98632812 C-64.6329595 117.92396291 -72.17656408 112.73952637 -79.72265625 107.56103516 C-81.09547453 106.62001885 -82.46996787 105.68143034 -83.84765625 104.74755859 C-99.80188305 93.91377621 -111.85556169 80.33011627 -115.5859375 60.95703125 C-117.54667822 46.95438289 -114.59973553 32.93771092 -107 21 C-95.08261801 5.35703343 -78.97368458 -3.06922677 -59.78515625 -6.58984375 C-39.86559045 -8.74831063 -18.82172867 -7.17942228 0 0 Z " fill="#FD00AD" transform="translate(116,7)"/>
<path d="M0 0 C10.89 0 21.78 0 33 0 C33 73.59 33 147.18 33 223 C22.11 223 11.22 223 0 223 C0 149.41 0 75.82 0 0 Z " fill="#FD00AE" transform="translate(387,4)"/>
</svg>
