<svg width="64" height="64" viewBox="0 0 355 418" fill="none" xmlns="http://www.w3.org/2000/svg">
<path d="M126.957 0.00195159C126.291 -0.0274958 125.626 0.0765183 125.001 0.307879C124.375 0.539239 123.803 0.893275 123.316 1.34917C122.83 1.80506 122.44 2.3536 122.168 2.96253C121.897 3.57147 121.75 4.22851 121.737 4.895C121.723 5.5615 121.843 6.224 122.089 6.84355C122.335 7.4631 122.702 8.02719 123.17 8.50265C123.637 8.97811 124.195 9.35533 124.81 9.61213C125.425 9.86894 126.085 10.0002 126.752 9.99804C151.895 10.5146 171.207 11.5754 184.51 13.1348C191.161 13.9144 196.321 14.8298 199.801 15.7832C203.281 16.7366 204.911 18.2176 204.4 17.5234C203.772 16.6688 204.912 18.8516 205.525 21.7031C206.139 24.5547 206.78 28.4592 207.402 33.0078C208.647 42.1051 209.83 53.8122 210.828 65.6172C211.826 77.4221 212.642 89.3399 213.17 98.916C213.698 108.492 213.894 116.154 213.795 117.854C213.525 122.487 211.999 135.619 210.611 149.506C209.224 163.392 207.946 178.118 208.213 187.605C208.474 196.885 210.578 232.471 210.975 274.885C211.361 316.214 210.035 363.723 203.965 398.096C186.726 404.483 160.959 407.957 126.854 407.957C126.191 407.948 125.533 408.07 124.918 408.317C124.303 408.564 123.744 408.931 123.272 409.396C122.8 409.861 122.425 410.416 122.17 411.027C121.914 411.638 121.782 412.294 121.782 412.957C121.782 413.62 121.914 414.276 122.17 414.887C122.425 415.498 122.8 416.053 123.272 416.518C123.744 416.983 124.303 417.35 124.918 417.597C125.533 417.844 126.191 417.966 126.854 417.957C163.318 417.957 190.986 414.305 210.314 406.434C211.089 406.118 211.773 405.613 212.302 404.965C212.831 404.317 213.189 403.547 213.344 402.725C220.1 366.756 221.372 317.484 220.973 274.791C220.573 232.098 218.446 195.773 218.209 187.324C217.978 179.084 219.186 164.277 220.563 150.5C221.939 136.723 223.451 124.061 223.779 118.436C223.979 115.006 223.688 108.052 223.154 98.3652C222.62 88.679 221.8 76.687 220.793 64.7754C219.786 52.8638 218.596 41.0465 217.311 31.6523C216.668 26.9553 216.005 22.8726 215.301 19.5996C214.596 16.3266 214.404 14.2477 212.457 11.5996C209.984 8.23642 206.743 7.31658 202.443 6.13867C198.144 4.96076 192.618 4.01517 185.674 3.20117C171.785 1.57317 152.273 0.522068 126.957 0.00195159Z" fill="#FE00AE"/>
<path d="M126.854 114.162C126.191 114.153 125.533 114.275 124.918 114.522C124.303 114.769 123.744 115.136 123.272 115.601C122.8 116.067 122.425 116.621 122.17 117.232C121.914 117.844 121.782 118.5 121.782 119.162C121.782 119.825 121.914 120.481 122.17 121.092C122.425 121.703 122.8 122.258 123.272 122.723C123.744 123.188 124.303 123.555 124.918 123.802C125.533 124.049 126.191 124.172 126.854 124.162C132.179 124.162 142.692 125.014 149.402 126.023C163.217 128.1 173.743 131.139 181.219 134.75C178.215 150.723 173.427 165.142 166.885 178.061C153.467 175.116 140.114 173.561 126.854 173.561C126.191 173.551 125.533 173.674 124.918 173.921C124.303 174.168 123.744 174.535 123.272 175C122.8 175.465 122.425 176.019 122.17 176.631C121.914 177.242 121.782 177.898 121.782 178.561C121.782 179.223 121.914 179.879 122.17 180.491C122.425 181.102 122.8 181.656 123.272 182.121C123.744 182.587 124.303 182.953 124.918 183.201C125.533 183.448 126.191 183.57 126.854 183.561C140.605 183.561 154.481 185.24 168.51 188.617C169.582 188.876 170.71 188.772 171.718 188.323C172.725 187.873 173.556 187.103 174.08 186.133C182.598 170.357 188.5 152.548 191.828 132.785C191.997 131.779 191.855 130.746 191.42 129.823C190.985 128.9 190.278 128.133 189.395 127.623C180.133 122.284 167.375 118.612 150.889 116.135C143.527 115.028 133.164 114.162 126.854 114.162ZM197.891 160.393C196.968 160.403 196.066 160.668 195.285 161.159C194.504 161.65 193.874 162.347 193.465 163.174C188.253 173.714 184.124 182.491 181.062 189.549C180.828 190.09 180.69 190.667 180.656 191.256C179.237 216.45 178.665 231.85 179.064 238.773C179.618 248.386 181.918 269.141 196.289 288.967C196.918 289.833 197.807 290.475 198.828 290.797C199.848 291.12 200.945 291.107 201.957 290.76C202.97 290.413 203.844 289.751 204.452 288.87C205.059 287.989 205.369 286.937 205.334 285.867L202.377 196.092L202.945 165.484C202.958 164.816 202.835 164.151 202.586 163.53C202.337 162.909 201.966 162.345 201.494 161.87C201.023 161.395 200.461 161.02 199.842 160.766C199.223 160.512 198.56 160.385 197.891 160.393ZM192.512 188.69L192.375 196.033C192.373 196.119 192.374 196.205 192.377 196.291L194.637 264.885C190.45 253.85 189.379 243.959 189.047 238.197C188.742 232.903 189.232 217.197 190.596 192.762C191.071 191.673 191.982 189.869 192.512 188.69ZM175.051 277.285C174.721 277.277 174.391 277.302 174.066 277.359C160.268 279.77 144.556 280.822 126.953 280.473C126.291 280.45 125.631 280.56 125.011 280.794C124.391 281.029 123.825 281.385 123.344 281.841C122.863 282.297 122.477 282.843 122.209 283.45C121.941 284.056 121.797 284.709 121.784 285.372C121.771 286.034 121.889 286.693 122.133 287.309C122.377 287.925 122.74 288.487 123.203 288.961C123.666 289.436 124.218 289.814 124.828 290.073C125.438 290.332 126.093 290.467 126.756 290.471C142.972 290.792 157.679 289.898 171.059 287.895C174.911 304.375 177.445 321.918 178.637 340.535C167.035 343.373 149.844 345.012 126.854 345.012C126.191 345.002 125.533 345.125 124.918 345.372C124.303 345.619 123.744 345.986 123.272 346.451C122.8 346.916 122.425 347.471 122.17 348.082C121.914 348.693 121.782 349.349 121.782 350.012C121.782 350.674 121.914 351.33 122.17 351.942C122.425 352.553 122.8 353.107 123.272 353.573C123.744 354.038 124.303 354.405 124.918 354.652C125.533 354.899 126.191 355.021 126.854 355.012C152.8 355.012 172.112 353.215 185.381 349.221C186.453 348.898 187.386 348.225 188.03 347.309C188.674 346.393 188.992 345.288 188.934 344.17C187.75 321.751 184.705 300.714 179.777 281.068C179.511 280.008 178.905 279.064 178.052 278.38C177.198 277.697 176.144 277.312 175.051 277.285ZM217.309 57.3692C216.646 57.3598 215.988 57.4822 215.373 57.7293C214.759 57.9764 214.199 58.3432 213.727 58.8084C213.255 59.2736 212.881 59.828 212.625 60.4393C212.369 61.0505 212.237 61.7066 212.237 62.3692C212.237 63.0318 212.369 63.6878 212.625 64.2991C212.881 64.9104 213.255 65.4648 213.727 65.93C214.199 66.3952 214.759 66.762 215.373 67.0091C215.988 67.2562 216.646 67.3786 217.309 67.3692H218.684V95.7071C217.459 95.946 216.367 96.6343 215.624 97.6368C214.881 98.6393 214.539 99.8835 214.666 101.125C214.794 102.367 215.38 103.516 216.312 104.346C217.243 105.177 218.451 105.63 219.699 105.615C224.792 105.615 228.684 101.237 228.684 96.3555V66.629C228.684 61.5713 224.481 57.3692 219.424 57.3692H217.309ZM216.396 304.373C215.15 304.361 213.945 304.815 213.016 305.646C212.087 306.476 211.501 307.624 211.374 308.863C211.247 310.103 211.587 311.346 212.329 312.347C213.07 313.349 214.158 314.038 215.381 314.279V342.711C214.156 342.95 213.065 343.638 212.321 344.641C211.578 345.643 211.236 346.887 211.364 348.129C211.491 349.37 212.078 350.52 213.009 351.35C213.94 352.181 215.149 352.634 216.396 352.619C221.488 352.619 225.381 348.243 225.381 343.361V313.635C225.381 308.753 221.489 304.373 216.396 304.373ZM184.371 3.35357C183.206 3.30115 182.06 3.65741 181.13 4.36074C180.2 5.06407 179.545 6.07026 179.278 7.20531C179.012 8.34037 179.15 9.53293 179.669 10.5768C180.189 11.6206 181.057 12.4502 182.123 12.9219C181.728 12.7402 182.609 13.2596 183.57 15.1368C184.078 16.1275 184.658 18.1957 185.215 19.7813C184.956 19.8162 184.651 19.9227 184.445 19.9317C184.953 19.9096 183.734 19.883 182.229 19.6739C180.723 19.4648 178.611 19.1271 175.937 18.668C171.191 17.8529 163.998 16.5046 155.719 14.918V10.9786C155.728 10.316 155.606 9.6582 155.359 9.04335C155.112 8.42851 154.745 7.86891 154.28 7.39706C153.814 6.92521 153.26 6.55053 152.649 6.29479C152.037 6.03905 151.381 5.90736 150.719 5.90736C150.056 5.90736 149.4 6.03905 148.789 6.29479C148.178 6.55053 147.623 6.92521 147.158 7.39706C146.693 7.86891 146.326 8.42851 146.079 9.04335C145.832 9.6582 145.709 10.316 145.719 10.9786V17.543C145.719 21.0411 147.83 23.5987 151.266 24.2618C161.127 26.1653 168.774 27.584 174.244 28.5235C176.979 28.9932 179.166 29.344 180.852 29.5782C182.537 29.8123 183.4 29.9864 184.881 29.9219C186.968 29.8311 188.933 29.4072 190.717 28.8126C191.609 28.5152 192.433 28.1944 193.326 27.6719C194.22 27.1495 195.961 26.8722 196.465 23.3497C196.56 22.681 196.519 22 196.344 21.3477C195.175 16.9914 193.944 13.4553 192.471 10.5782C190.997 7.70102 189.339 5.2337 186.299 3.83599C185.695 3.54784 185.039 3.38379 184.371 3.35357ZM227.529 149.861C226.559 149.811 225.534 149.878 224.318 150.188C220.94 151.047 217.411 152.902 212.863 155.717C212.289 156.055 211.788 156.504 211.39 157.038C210.991 157.572 210.704 158.18 210.544 158.826C210.384 159.473 210.355 160.145 210.458 160.803C210.561 161.462 210.795 162.092 211.146 162.659C211.497 163.225 211.957 163.716 212.5 164.102C213.042 164.488 213.657 164.762 214.307 164.907C214.957 165.053 215.63 165.067 216.286 164.948C216.941 164.83 217.567 164.582 218.125 164.219C222.267 161.655 225.443 160.22 226.783 159.879C226.121 160.047 227.349 159.874 228.74 160.111C230.132 160.348 231.906 160.792 233.615 161.332C235.324 161.872 236.99 162.516 238.172 163.08C238.745 163.354 239.207 163.728 239.451 163.916C239.594 164.253 240.627 166.389 241.193 168.391C241.296 168.753 241.31 168.952 241.391 169.289C239.983 169.73 238.185 170.21 236.025 170.518C231.311 171.19 225.496 171.035 220.592 168.775C219.994 168.486 219.344 168.319 218.68 168.284C218.017 168.249 217.353 168.347 216.727 168.571C216.102 168.795 215.527 169.142 215.038 169.591C214.548 170.04 214.152 170.582 213.874 171.186C213.596 171.789 213.441 172.442 213.418 173.106C213.396 173.77 213.505 174.432 213.741 175.053C213.977 175.674 214.335 176.242 214.792 176.724C215.25 177.205 215.8 177.591 216.408 177.857C223.773 181.25 231.454 181.271 237.436 180.418C240.427 179.992 243.008 179.337 245.02 178.672C246.025 178.34 246.883 178.008 247.639 177.66C248.394 177.313 248.774 177.473 250.207 175.945C251.729 174.323 251.707 173.081 251.781 172.207C251.856 171.333 251.801 170.64 251.719 169.936C251.554 168.527 251.227 167.118 250.816 165.668C249.996 162.768 249.205 160.155 247.396 157.652C245.685 155.281 244.245 154.897 242.48 154.055C240.716 153.213 238.706 152.454 236.627 151.797C234.548 151.14 232.422 150.593 230.418 150.252C229.416 150.081 228.5 149.912 227.529 149.861Z" fill="#FE00AE"/>
<path d="M125.043 0.00195159C99.7269 0.522068 80.2149 1.57317 66.3262 3.20117C59.3818 4.01517 53.8558 4.96076 49.5566 6.13867C45.2574 7.31658 42.0157 8.23642 39.543 11.5996C37.5958 14.2477 37.4036 16.3266 36.6992 19.5996C35.9949 22.8726 35.3321 26.9553 34.6894 31.6523C33.4041 41.0465 32.214 52.8638 31.207 64.7754C30.2001 76.687 29.3797 88.679 28.8457 98.3652C28.3117 108.052 28.0208 115.006 28.2207 118.436C28.5486 124.061 30.0612 136.723 31.4375 150.5C32.8138 164.277 34.0225 179.084 33.791 187.324C33.5537 195.773 31.4269 232.098 31.0273 274.791C30.6278 317.484 31.8998 366.756 38.6562 402.725C38.8106 403.547 39.1688 404.317 39.698 404.965C40.2273 405.613 40.9106 406.118 41.6855 406.434C61.014 414.305 88.682 417.957 125.146 417.957C125.809 417.966 126.467 417.844 127.082 417.597C127.697 417.35 128.256 416.983 128.728 416.518C129.2 416.053 129.575 415.498 129.83 414.887C130.086 414.276 130.218 413.62 130.218 412.957C130.218 412.294 130.086 411.638 129.83 411.027C129.575 410.416 129.2 409.861 128.728 409.396C128.256 408.931 127.697 408.564 127.082 408.317C126.467 408.07 125.809 407.948 125.146 407.957C91.0409 407.957 65.2743 404.483 48.0351 398.096C41.965 363.723 40.6386 316.214 41.0254 274.885C41.4223 232.471 43.5264 196.885 43.7871 187.605C44.0536 178.118 42.7759 163.392 41.3887 149.506C40.0015 135.619 38.4752 122.487 38.2051 117.854C38.106 116.154 38.3022 108.492 38.8301 98.916C39.3579 89.3399 40.1739 77.4221 41.1719 65.6172C42.1698 53.8122 43.3529 42.1051 44.5976 33.0078C45.22 28.4592 45.8609 24.5547 46.4746 21.7031C47.0883 18.8516 48.228 16.6688 47.5996 17.5234C47.0892 18.2176 48.7193 16.7366 52.1992 15.7832C55.6791 14.8298 60.8388 13.9144 67.4902 13.1348C80.7931 11.5754 100.105 10.5146 125.248 9.99804C125.915 10.0002 126.575 9.86894 127.19 9.61213C127.805 9.35533 128.363 8.97811 128.83 8.50265C129.298 8.02719 129.665 7.4631 129.911 6.84355C130.157 6.224 130.277 5.5615 130.263 4.895C130.25 4.22851 130.103 3.57147 129.832 2.96253C129.56 2.3536 129.17 1.80506 128.684 1.34917C128.197 0.893275 127.624 0.539239 126.999 0.307879C126.374 0.0765183 125.709 -0.0274958 125.043 0.00195159Z" fill="#FE00AE"/>
<path d="M125.146 114.162C118.836 114.162 108.473 115.028 101.111 116.135C84.6248 118.612 71.8668 122.284 62.6054 127.623C61.7217 128.133 61.0149 128.9 60.5799 129.823C60.1449 130.746 60.0025 131.779 60.1719 132.785C63.4995 152.548 69.4022 170.357 77.9199 186.133C78.4443 187.103 79.2749 187.873 80.2824 188.323C81.2899 188.772 82.4177 188.876 83.4902 188.617C97.5188 185.24 111.395 183.561 125.146 183.561C125.809 183.57 126.467 183.448 127.082 183.2C127.697 182.953 128.256 182.587 128.728 182.121C129.2 181.656 129.575 181.102 129.83 180.491C130.086 179.879 130.218 179.223 130.218 178.561C130.218 177.898 130.086 177.242 129.83 176.631C129.575 176.019 129.2 175.465 128.728 175C128.256 174.535 127.697 174.168 127.082 173.921C126.467 173.674 125.809 173.551 125.146 173.561C111.886 173.561 98.5327 175.116 85.1152 178.061C78.5731 165.142 73.7845 150.723 70.7812 134.75C78.2574 131.139 88.7828 128.1 102.598 126.023C109.308 125.014 119.821 124.162 125.146 124.162C125.809 124.172 126.467 124.049 127.082 123.802C127.697 123.555 128.256 123.188 128.728 122.723C129.2 122.258 129.575 121.703 129.83 121.092C130.086 120.481 130.218 119.825 130.218 119.162C130.218 118.5 130.086 117.844 129.83 117.232C129.575 116.621 129.2 116.067 128.728 115.601C128.256 115.136 127.697 114.769 127.082 114.522C126.467 114.275 125.809 114.153 125.146 114.162ZM54.1094 160.393C53.4404 160.385 52.7767 160.512 52.1577 160.766C51.5387 161.02 50.9769 161.395 50.5055 161.87C50.0342 162.345 49.6629 162.909 49.4137 163.53C49.1645 164.151 49.0424 164.816 49.0547 165.484L49.623 196.092L46.666 285.867C46.6312 286.937 46.9405 287.989 47.5483 288.87C48.1561 289.751 49.0305 290.413 50.0428 290.76C51.0551 291.107 52.152 291.12 53.1723 290.797C54.1926 290.475 55.0824 289.833 55.7109 288.967C70.0815 269.141 72.3821 248.386 72.9355 238.773V238.771C73.3346 231.848 72.7629 216.449 71.3437 191.256C71.31 190.667 71.1725 190.089 70.9375 189.549C67.8762 182.491 63.747 173.714 58.5351 163.174C58.1258 162.347 57.4957 161.65 56.7146 161.159C55.9335 160.668 55.0318 160.403 54.1094 160.393ZM59.4883 188.689C60.0182 189.869 60.9291 191.673 61.4043 192.762C62.7685 217.197 63.2584 232.903 62.9531 238.197C62.6215 243.959 61.5497 253.85 57.3633 264.885L59.623 196.291C59.6259 196.205 59.6266 196.119 59.625 196.033L59.4883 188.689ZM76.9375 277.285C75.8464 277.315 74.795 277.701 73.9437 278.384C73.0924 279.067 72.4879 280.01 72.2226 281.068C67.2953 300.714 64.2495 321.751 63.0664 344.17C63.0076 345.288 63.3258 346.394 63.97 347.309C64.6141 348.225 65.547 348.898 66.6191 349.221C79.8879 353.215 99.2 355.012 125.146 355.012C125.809 355.021 126.467 354.899 127.082 354.652C127.697 354.405 128.256 354.038 128.728 353.573C129.2 353.107 129.575 352.553 129.83 351.942C130.086 351.33 130.218 350.674 130.218 350.012C130.218 349.349 130.086 348.693 129.83 348.082C129.575 347.471 129.2 346.916 128.728 346.451C128.256 345.986 127.697 345.619 127.082 345.372C126.467 345.125 125.809 345.002 125.146 345.012C102.156 345.012 84.9648 343.373 73.3633 340.535C74.5551 321.918 77.0885 304.376 80.9414 287.895C94.3205 289.898 109.028 290.792 125.244 290.471C125.907 290.467 126.562 290.332 127.172 290.073C127.782 289.814 128.334 289.436 128.797 288.961C129.259 288.487 129.623 287.925 129.867 287.309C130.111 286.693 130.229 286.034 130.216 285.372C130.203 284.709 130.059 284.056 129.791 283.45C129.523 282.844 129.137 282.297 128.656 281.841C128.175 281.385 127.609 281.029 126.989 280.794C126.369 280.56 125.709 280.45 125.047 280.473C107.444 280.822 91.7322 279.77 77.9336 277.359C77.6048 277.302 77.2712 277.277 76.9375 277.285ZM32.5762 57.3692C27.5185 57.3692 23.3164 61.5713 23.3164 66.629V96.3555C23.3164 101.237 27.208 105.615 32.3008 105.615C33.5451 105.625 34.7483 105.17 35.6751 104.339C36.6019 103.509 37.1859 102.363 37.3128 101.125C37.4398 99.8871 37.1006 98.6464 36.3616 97.6452C35.6225 96.644 34.5367 95.9544 33.3164 95.711V67.3692H34.6914C35.3539 67.3786 36.0118 67.2562 36.6266 67.0091C37.2415 66.762 37.8011 66.3952 38.2729 65.93C38.7447 65.4648 39.1194 64.9104 39.3752 64.2991C39.6309 63.6878 39.7626 63.0318 39.7626 62.3692C39.7626 61.7066 39.6309 61.0505 39.3752 60.4393C39.1194 59.828 38.7447 59.2736 38.2729 58.8084C37.8011 58.3432 37.2415 57.9764 36.6266 57.7293C36.0118 57.4822 35.3539 57.3598 34.6914 57.3692H32.5762ZM35.6035 304.373C30.5108 304.373 26.6191 308.753 26.6191 313.635V343.361C26.6191 348.243 30.5123 352.619 35.6035 352.619C36.8479 352.629 38.051 352.174 38.9779 351.343C39.9047 350.513 40.4887 349.367 40.6156 348.129C40.7425 346.891 40.4034 345.65 39.6643 344.649C38.9253 343.648 37.8395 342.958 36.6191 342.715V314.283C37.8464 314.047 38.9407 313.359 39.6862 312.356C40.4318 311.353 40.7746 310.107 40.6472 308.863C40.5198 307.62 39.9313 306.469 38.9978 305.638C38.0642 304.807 36.8533 304.356 35.6035 304.373ZM67.9785 3.34966C67.1917 3.33029 66.4114 3.49692 65.7011 3.83599C62.6605 5.2337 61.0026 7.70102 59.5293 10.5782C58.0559 13.4553 56.8246 16.9914 55.6562 21.3477C55.4811 22 55.4399 22.681 55.5351 23.3497C56.0389 26.8722 57.7804 27.1495 58.6738 27.6719C59.5672 28.1944 60.3912 28.5152 61.2832 28.8125C63.0672 29.4072 65.0317 29.8311 67.1191 29.9219C68.5998 29.9863 69.463 29.8123 71.1484 29.5782C72.8338 29.344 75.0209 28.9932 77.7558 28.5235C83.2253 27.5841 90.8718 26.1651 100.732 24.2618C104.17 23.5993 106.281 21.0417 106.281 17.543V10.9786C106.291 10.316 106.168 9.65819 105.921 9.04335C105.674 8.42851 105.307 7.86891 104.842 7.39706C104.377 6.92521 103.822 6.55053 103.211 6.29479C102.6 6.03905 101.944 5.90735 101.281 5.90735C100.619 5.90735 99.9626 6.03905 99.3513 6.29479C98.74 6.55053 98.1856 6.92521 97.7204 7.39706C97.2552 7.86891 96.8884 8.42851 96.6413 9.04335C96.3943 9.65819 96.2719 10.316 96.2812 10.9786V14.918C88.0022 16.5046 80.8087 17.8529 76.0625 18.668C73.3893 19.1271 71.2767 19.4648 69.7715 19.6739C68.2663 19.883 67.047 19.9096 67.5547 19.9317C67.3491 19.9228 67.0438 19.8162 66.7851 19.7813C67.3423 18.1957 67.9223 16.1275 68.4297 15.1368C69.391 13.2596 70.2722 12.7402 69.8769 12.9219C70.916 12.4624 71.7676 11.6628 72.2915 10.6548C72.8155 9.64669 72.9806 8.49024 72.7595 7.37584C72.5385 6.26144 71.9446 5.25551 71.0756 4.5237C70.2066 3.79189 69.1143 3.37781 67.9785 3.34966ZM24.4707 149.861C23.5002 149.912 22.5841 150.081 21.582 150.252C19.5778 150.593 17.4521 151.14 15.373 151.797C13.294 152.454 11.2841 153.213 9.51951 154.055C7.75494 154.897 6.31536 155.281 4.6035 157.652C2.79544 160.155 2.00445 162.768 1.18357 165.668C0.773053 167.118 0.446369 168.527 0.281229 169.936C0.198629 170.64 0.144379 171.333 0.218729 172.207C0.293129 173.081 0.271428 174.323 1.79295 175.945C3.2256 177.473 3.60549 177.313 4.36131 177.66C5.11713 178.008 5.97463 178.339 6.98045 178.672C8.99209 179.337 11.5734 179.992 14.5644 180.418C20.5464 181.271 28.2268 181.25 35.5918 177.857C36.2003 177.591 36.7496 177.205 37.2075 176.724C37.6654 176.242 38.0228 175.674 38.2587 175.053C38.4946 174.432 38.6044 173.77 38.5815 173.106C38.5587 172.442 38.4038 171.789 38.1258 171.186C37.8478 170.582 37.4523 170.04 36.9624 169.591C36.4725 169.142 35.8981 168.795 35.2727 168.571C34.6473 168.347 33.9834 168.249 33.3199 168.284C32.6563 168.319 32.0064 168.486 31.4082 168.775C26.5041 171.035 20.6886 171.19 15.9746 170.518C13.815 170.21 12.0171 169.73 10.6094 169.289C10.6896 168.952 10.7041 168.753 10.8066 168.391C11.3734 166.389 12.4056 164.253 12.5488 163.916C12.7927 163.728 13.2547 163.354 13.8281 163.08C15.0099 162.516 16.6757 161.872 18.3847 161.332C20.0938 160.792 21.8683 160.348 23.2597 160.111C24.6512 159.874 25.8791 160.047 25.2168 159.879C26.5574 160.22 29.7325 161.655 33.875 164.219C34.4334 164.582 35.0588 164.83 35.7144 164.948C36.37 165.067 37.0426 165.053 37.6928 164.907C38.3429 164.762 38.9575 164.488 39.5003 164.102C40.0432 163.716 40.5035 163.225 40.8541 162.659C41.2046 162.092 41.4385 161.462 41.5419 160.803C41.6453 160.145 41.6162 159.473 41.4562 158.826C41.2962 158.18 41.0086 157.572 40.6103 157.038C40.212 156.504 39.711 156.055 39.1367 155.717C34.5885 152.902 31.0597 151.047 27.6816 150.188C26.4659 149.878 25.4412 149.811 24.4707 149.861Z" fill="#FE00AE"/>
<path d="M126.957 0.00195159C126.291 -0.0274958 125.626 0.0765183 125.001 0.307879C124.375 0.539239 123.803 0.893275 123.316 1.34917C122.83 1.80506 122.44 2.3536 122.168 2.96253C121.897 3.57147 121.75 4.22851 121.737 4.895C121.723 5.5615 121.843 6.224 122.089 6.84355C122.335 7.4631 122.702 8.02719 123.17 8.50265C123.637 8.97811 124.195 9.35533 124.81 9.61213C125.425 9.86894 126.085 10.0002 126.752 9.99804C151.895 10.5146 171.207 11.5754 184.51 13.1348C191.161 13.9144 196.321 14.8298 199.801 15.7832C203.281 16.7366 204.911 18.2176 204.4 17.5234C203.772 16.6688 204.912 18.8516 205.525 21.7031C206.139 24.5547 206.78 28.4592 207.402 33.0078C208.647 42.1051 209.83 53.8122 210.828 65.6172C211.826 77.4221 212.642 89.3399 213.17 98.916C213.698 108.492 213.894 116.154 213.795 117.854C213.525 122.487 211.999 135.619 210.611 149.506C209.224 163.392 207.946 178.118 208.213 187.605C208.474 196.885 210.578 232.471 210.975 274.885C211.361 316.214 210.035 363.723 203.965 398.096C186.726 404.483 160.959 407.957 126.854 407.957C126.191 407.948 125.533 408.07 124.918 408.317C124.303 408.564 123.744 408.931 123.272 409.396C122.8 409.861 122.425 410.416 122.17 411.027C121.914 411.638 121.782 412.294 121.782 412.957C121.782 413.62 121.914 414.276 122.17 414.887C122.425 415.498 122.8 416.053 123.272 416.518C123.744 416.983 124.303 417.35 124.918 417.597C125.533 417.844 126.191 417.966 126.854 417.957C163.318 417.957 190.986 414.305 210.314 406.434C211.089 406.118 211.773 405.613 212.302 404.965C212.831 404.317 213.189 403.547 213.344 402.725C220.1 366.756 221.372 317.484 220.973 274.791C220.573 232.098 218.446 195.773 218.209 187.324C217.978 179.084 219.186 164.277 220.563 150.5C221.939 136.723 223.451 124.061 223.779 118.436C223.979 115.006 223.688 108.052 223.154 98.3652C222.62 88.679 221.8 76.687 220.793 64.7754C219.786 52.8638 218.596 41.0465 217.311 31.6523C216.668 26.9553 216.005 22.8726 215.301 19.5996C214.596 16.3266 214.404 14.2477 212.457 11.5996C209.984 8.23642 206.743 7.31658 202.443 6.13867C198.144 4.96076 192.618 4.01517 185.674 3.20117C171.785 1.57317 152.273 0.522068 126.957 0.00195159Z" fill="#FE00AE"/>
<path d="M126.854 114.162C126.191 114.153 125.533 114.275 124.918 114.522C124.303 114.769 123.744 115.136 123.272 115.601C122.8 116.067 122.425 116.621 122.17 117.232C121.914 117.844 121.782 118.5 121.782 119.162C121.782 119.825 121.914 120.481 122.17 121.092C122.425 121.703 122.8 122.258 123.272 122.723C123.744 123.188 124.303 123.555 124.918 123.802C125.533 124.049 126.191 124.172 126.854 124.162C132.179 124.162 142.692 125.014 149.402 126.023C163.217 128.1 173.743 131.139 181.219 134.75C178.215 150.723 173.427 165.142 166.885 178.061C153.467 175.116 140.114 173.561 126.854 173.561C126.191 173.551 125.533 173.674 124.918 173.921C124.303 174.168 123.744 174.535 123.272 175C122.8 175.465 122.425 176.019 122.17 176.631C121.914 177.242 121.782 177.898 121.782 178.561C121.782 179.223 121.914 179.879 122.17 180.491C122.425 181.102 122.8 181.656 123.272 182.121C123.744 182.587 124.303 182.953 124.918 183.201C125.533 183.448 126.191 183.57 126.854 183.561C140.605 183.561 154.481 185.24 168.51 188.617C169.582 188.876 170.71 188.772 171.718 188.323C172.725 187.873 173.556 187.103 174.08 186.133C182.598 170.357 188.5 152.548 191.828 132.785C191.997 131.779 191.855 130.746 191.42 129.823C190.985 128.9 190.278 128.133 189.395 127.623C180.133 122.284 167.375 118.612 150.889 116.135C143.527 115.028 133.164 114.162 126.854 114.162ZM197.891 160.393C196.968 160.403 196.066 160.668 195.285 161.159C194.504 161.65 193.874 162.347 193.465 163.174C188.253 173.714 184.124 182.491 181.062 189.549C180.828 190.09 180.69 190.667 180.656 191.256C179.237 216.45 178.665 231.85 179.064 238.773C179.618 248.386 181.918 269.141 196.289 288.967C196.918 289.833 197.807 290.475 198.828 290.797C199.848 291.12 200.945 291.107 201.957 290.76C202.97 290.413 203.844 289.751 204.452 288.87C205.059 287.989 205.369 286.937 205.334 285.867L202.377 196.092L202.945 165.484C202.958 164.816 202.835 164.151 202.586 163.53C202.337 162.909 201.966 162.345 201.494 161.87C201.023 161.395 200.461 161.02 199.842 160.766C199.223 160.512 198.56 160.385 197.891 160.393ZM192.512 188.69L192.375 196.033C192.373 196.119 192.374 196.205 192.377 196.291L194.637 264.885C190.45 253.85 189.379 243.959 189.047 238.197C188.742 232.903 189.232 217.197 190.596 192.762C191.071 191.673 191.982 189.869 192.512 188.69ZM175.051 277.285C174.721 277.277 174.391 277.302 174.066 277.359C160.268 279.77 144.556 280.822 126.953 280.473C126.291 280.45 125.631 280.56 125.011 280.794C124.391 281.029 123.825 281.385 123.344 281.841C122.863 282.297 122.477 282.843 122.209 283.45C121.941 284.056 121.797 284.709 121.784 285.372C121.771 286.034 121.889 286.693 122.133 287.309C122.377 287.925 122.74 288.487 123.203 288.961C123.666 289.436 124.218 289.814 124.828 290.073C125.438 290.332 126.093 290.467 126.756 290.471C142.972 290.792 157.679 289.898 171.059 287.895C174.911 304.375 177.445 321.918 178.637 340.535C167.035 343.373 149.844 345.012 126.854 345.012C126.191 345.002 125.533 345.125 124.918 345.372C124.303 345.619 123.744 345.986 123.272 346.451C122.8 346.916 122.425 347.471 122.17 348.082C121.914 348.693 121.782 349.349 121.782 350.012C121.782 350.674 121.914 351.33 122.17 351.942C122.425 352.553 122.8 353.107 123.272 353.573C123.744 354.038 124.303 354.405 124.918 354.652C125.533 354.899 126.191 355.021 126.854 355.012C152.8 355.012 172.112 353.215 185.381 349.221C186.453 348.898 187.386 348.225 188.03 347.309C188.674 346.393 188.992 345.288 188.934 344.17C187.75 321.751 184.705 300.714 179.777 281.068C179.511 280.008 178.905 279.064 178.052 278.38C177.198 277.697 176.144 277.312 175.051 277.285ZM217.309 57.3692C216.646 57.3598 215.988 57.4822 215.373 57.7293C214.759 57.9764 214.199 58.3432 213.727 58.8084C213.255 59.2736 212.881 59.828 212.625 60.4393C212.369 61.0505 212.237 61.7066 212.237 62.3692C212.237 63.0318 212.369 63.6878 212.625 64.2991C212.881 64.9104 213.255 65.4648 213.727 65.93C214.199 66.3952 214.759 66.762 215.373 67.0091C215.988 67.2562 216.646 67.3786 217.309 67.3692H218.684V95.7071C217.459 95.946 216.367 96.6343 215.624 97.6368C214.881 98.6393 214.539 99.8835 214.666 101.125C214.794 102.367 215.38 103.516 216.312 104.346C217.243 105.177 218.451 105.63 219.699 105.615C224.792 105.615 228.684 101.237 228.684 96.3555V66.629C228.684 61.5713 224.481 57.3692 219.424 57.3692H217.309ZM216.396 304.373C215.15 304.361 213.945 304.815 213.016 305.646C212.087 306.476 211.501 307.624 211.374 308.863C211.247 310.103 211.587 311.346 212.329 312.347C213.07 313.349 214.158 314.038 215.381 314.279V342.711C214.156 342.95 213.065 343.638 212.321 344.641C211.578 345.643 211.236 346.887 211.364 348.129C211.491 349.37 212.078 350.52 213.009 351.35C213.94 352.181 215.149 352.634 216.396 352.619C221.488 352.619 225.381 348.243 225.381 343.361V313.635C225.381 308.753 221.489 304.373 216.396 304.373ZM184.371 3.35357C183.206 3.30115 182.06 3.65741 181.13 4.36074C180.2 5.06407 179.545 6.07026 179.278 7.20531C179.012 8.34037 179.15 9.53293 179.669 10.5768C180.189 11.6206 181.057 12.4502 182.123 12.9219C181.728 12.7402 182.609 13.2596 183.57 15.1368C184.078 16.1275 184.658 18.1957 185.215 19.7813C184.956 19.8162 184.651 19.9227 184.445 19.9317C184.953 19.9096 183.734 19.883 182.229 19.6739C180.723 19.4648 178.611 19.1271 175.937 18.668C171.191 17.8529 163.998 16.5046 155.719 14.918V10.9786C155.728 10.316 155.606 9.6582 155.359 9.04335C155.112 8.42851 154.745 7.86891 154.28 7.39706C153.814 6.92521 153.26 6.55053 152.649 6.29479C152.037 6.03905 151.381 5.90736 150.719 5.90736C150.056 5.90736 149.4 6.03905 148.789 6.29479C148.178 6.55053 147.623 6.92521 147.158 7.39706C146.693 7.86891 146.326 8.42851 146.079 9.04335C145.832 9.6582 145.709 10.316 145.719 10.9786V17.543C145.719 21.0411 147.83 23.5987 151.266 24.2618C161.127 26.1653 168.774 27.584 174.244 28.5235C176.979 28.9932 179.166 29.344 180.852 29.5782C182.537 29.8123 183.4 29.9864 184.881 29.9219C186.968 29.8311 188.933 29.4072 190.717 28.8126C191.609 28.5152 192.433 28.1944 193.326 27.6719C194.22 27.1495 195.961 26.8722 196.465 23.3497C196.56 22.681 196.519 22 196.344 21.3477C195.175 16.9914 193.944 13.4553 192.471 10.5782C190.997 7.70102 189.339 5.2337 186.299 3.83599C185.695 3.54784 185.039 3.38379 184.371 3.35357ZM227.529 149.861C226.559 149.811 225.534 149.878 224.318 150.188C220.94 151.047 217.411 152.902 212.863 155.717C212.289 156.055 211.788 156.504 211.39 157.038C210.991 157.572 210.704 158.18 210.544 158.826C210.384 159.473 210.355 160.145 210.458 160.803C210.561 161.462 210.795 162.092 211.146 162.659C211.497 163.225 211.957 163.716 212.5 164.102C213.042 164.488 213.657 164.762 214.307 164.907C214.957 165.053 215.63 165.067 216.286 164.948C216.941 164.83 217.567 164.582 218.125 164.219C222.267 161.655 225.443 160.22 226.783 159.879C226.121 160.047 227.349 159.874 228.74 160.111C230.132 160.348 231.906 160.792 233.615 161.332C235.324 161.872 236.99 162.516 238.172 163.08C238.745 163.354 239.207 163.728 239.451 163.916C239.594 164.253 240.627 166.389 241.193 168.391C241.296 168.753 241.31 168.952 241.391 169.289C239.983 169.73 238.185 170.21 236.025 170.518C231.311 171.19 225.496 171.035 220.592 168.775C219.994 168.486 219.344 168.319 218.68 168.284C218.017 168.249 217.353 168.347 216.727 168.571C216.102 168.795 215.527 169.142 215.038 169.591C214.548 170.04 214.152 170.582 213.874 171.186C213.596 171.789 213.441 172.442 213.418 173.106C213.396 173.77 213.505 174.432 213.741 175.053C213.977 175.674 214.335 176.242 214.792 176.724C215.25 177.205 215.8 177.591 216.408 177.857C223.773 181.25 231.454 181.271 237.436 180.418C240.427 179.992 243.008 179.337 245.02 178.672C246.025 178.34 246.883 178.008 247.639 177.66C248.394 177.313 248.774 177.473 250.207 175.945C251.729 174.323 251.707 173.081 251.781 172.207C251.856 171.333 251.801 170.64 251.719 169.936C251.554 168.527 251.227 167.118 250.816 165.668C249.996 162.768 249.205 160.155 247.396 157.652C245.685 155.281 244.245 154.897 242.48 154.055C240.716 153.213 238.706 152.454 236.627 151.797C234.548 151.14 232.422 150.593 230.418 150.252C229.416 150.081 228.5 149.912 227.529 149.861Z" fill="#FE00AE"/>
<path d="M125.043 0.00195159C99.7269 0.522068 80.2149 1.57317 66.3262 3.20117C59.3818 4.01517 53.8558 4.96076 49.5566 6.13867C45.2574 7.31658 42.0157 8.23642 39.543 11.5996C37.5958 14.2477 37.4036 16.3266 36.6992 19.5996C35.9949 22.8726 35.3321 26.9553 34.6894 31.6523C33.4041 41.0465 32.214 52.8638 31.207 64.7754C30.2001 76.687 29.3797 88.679 28.8457 98.3652C28.3117 108.052 28.0208 115.006 28.2207 118.436C28.5486 124.061 30.0612 136.723 31.4375 150.5C32.8138 164.277 34.0225 179.084 33.791 187.324C33.5537 195.773 31.4269 232.098 31.0273 274.791C30.6278 317.484 31.8998 366.756 38.6562 402.725C38.8106 403.547 39.1688 404.317 39.698 404.965C40.2273 405.613 40.9106 406.118 41.6855 406.434C61.014 414.305 88.682 417.957 125.146 417.957C125.809 417.966 126.467 417.844 127.082 417.597C127.697 417.35 128.256 416.983 128.728 416.518C129.2 416.053 129.575 415.498 129.83 414.887C130.086 414.276 130.218 413.62 130.218 412.957C130.218 412.294 130.086 411.638 129.83 411.027C129.575 410.416 129.2 409.861 128.728 409.396C128.256 408.931 127.697 408.564 127.082 408.317C126.467 408.07 125.809 407.948 125.146 407.957C91.0409 407.957 65.2743 404.483 48.0351 398.096C41.965 363.723 40.6386 316.214 41.0254 274.885C41.4223 232.471 43.5264 196.885 43.7871 187.605C44.0536 178.118 42.7759 163.392 41.3887 149.506C40.0015 135.619 38.4752 122.487 38.2051 117.854C38.106 116.154 38.3022 108.492 38.8301 98.916C39.3579 89.3399 40.1739 77.4221 41.1719 65.6172C42.1698 53.8122 43.3529 42.1051 44.5976 33.0078C45.22 28.4592 45.8609 24.5547 46.4746 21.7031C47.0883 18.8516 48.228 16.6688 47.5996 17.5234C47.0892 18.2176 48.7193 16.7366 52.1992 15.7832C55.6791 14.8298 60.8388 13.9144 67.4902 13.1348C80.7931 11.5754 100.105 10.5146 125.248 9.99804C125.915 10.0002 126.575 9.86894 127.19 9.61213C127.805 9.35533 128.363 8.97811 128.83 8.50265C129.298 8.02719 129.665 7.4631 129.911 6.84355C130.157 6.224 130.277 5.5615 130.263 4.895C130.25 4.22851 130.103 3.57147 129.832 2.96253C129.56 2.3536 129.17 1.80506 128.684 1.34917C128.197 0.893275 127.624 0.539239 126.999 0.307879C126.374 0.0765183 125.709 -0.0274958 125.043 0.00195159Z" fill="#FE00AE"/>
<path d="M125.146 114.162C118.836 114.162 108.473 115.028 101.111 116.135C84.6248 118.612 71.8668 122.284 62.6054 127.623C61.7217 128.133 61.0149 128.9 60.5799 129.823C60.1449 130.746 60.0025 131.779 60.1719 132.785C63.4995 152.548 69.4022 170.357 77.9199 186.133C78.4443 187.103 79.2749 187.873 80.2824 188.323C81.2899 188.772 82.4177 188.876 83.4902 188.617C97.5188 185.24 111.395 183.561 125.146 183.561C125.809 183.57 126.467 183.448 127.082 183.2C127.697 182.953 128.256 182.587 128.728 182.121C129.2 181.656 129.575 181.102 129.83 180.491C130.086 179.879 130.218 179.223 130.218 178.561C130.218 177.898 130.086 177.242 129.83 176.631C129.575 176.019 129.2 175.465 128.728 175C128.256 174.535 127.697 174.168 127.082 173.921C126.467 173.674 125.809 173.551 125.146 173.561C111.886 173.561 98.5327 175.116 85.1152 178.061C78.5731 165.142 73.7845 150.723 70.7812 134.75C78.2574 131.139 88.7828 128.1 102.598 126.023C109.308 125.014 119.821 124.162 125.146 124.162C125.809 124.172 126.467 124.049 127.082 123.802C127.697 123.555 128.256 123.188 128.728 122.723C129.2 122.258 129.575 121.703 129.83 121.092C130.086 120.481 130.218 119.825 130.218 119.162C130.218 118.5 130.086 117.844 129.83 117.232C129.575 116.621 129.2 116.067 128.728 115.601C128.256 115.136 127.697 114.769 127.082 114.522C126.467 114.275 125.809 114.153 125.146 114.162ZM54.1094 160.393C53.4404 160.385 52.7767 160.512 52.1577 160.766C51.5387 161.02 50.9769 161.395 50.5055 161.87C50.0342 162.345 49.6629 162.909 49.4137 163.53C49.1645 164.151 49.0424 164.816 49.0547 165.484L49.623 196.092L46.666 285.867C46.6312 286.937 46.9405 287.989 47.5483 288.87C48.1561 289.751 49.0305 290.413 50.0428 290.76C51.0551 291.107 52.152 291.12 53.1723 290.797C54.1926 290.475 55.0824 289.833 55.7109 288.967C70.0815 269.141 72.3821 248.386 72.9355 238.773V238.771C73.3346 231.848 72.7629 216.449 71.3437 191.256C71.31 190.667 71.1725 190.089 70.9375 189.549C67.8762 182.491 63.747 173.714 58.5351 163.174C58.1258 162.347 57.4957 161.65 56.7146 161.159C55.9335 160.668 55.0318 160.403 54.1094 160.393ZM59.4883 188.689C60.0182 189.869 60.9291 191.673 61.4043 192.762C62.7685 217.197 63.2584 232.903 62.9531 238.197C62.6215 243.959 61.5497 253.85 57.3633 264.885L59.623 196.291C59.6259 196.205 59.6266 196.119 59.625 196.033L59.4883 188.689ZM76.9375 277.285C75.8464 277.315 74.795 277.701 73.9437 278.384C73.0924 279.067 72.4879 280.01 72.2226 281.068C67.2953 300.714 64.2495 321.751 63.0664 344.17C63.0076 345.288 63.3258 346.394 63.97 347.309C64.6141 348.225 65.547 348.898 66.6191 349.221C79.8879 353.215 99.2 355.012 125.146 355.012C125.809 355.021 126.467 354.899 127.082 354.652C127.697 354.405 128.256 354.038 128.728 353.573C129.2 353.107 129.575 352.553 129.83 351.942C130.086 351.33 130.218 350.674 130.218 350.012C130.218 349.349 130.086 348.693 129.83 348.082C129.575 347.471 129.2 346.916 128.728 346.451C128.256 345.986 127.697 345.619 127.082 345.372C126.467 345.125 125.809 345.002 125.146 345.012C102.156 345.012 84.9648 343.373 73.3633 340.535C74.5551 321.918 77.0885 304.376 80.9414 287.895C94.3205 289.898 109.028 290.792 125.244 290.471C125.907 290.467 126.562 290.332 127.172 290.073C127.782 289.814 128.334 289.436 128.797 288.961C129.259 288.487 129.623 287.925 129.867 287.309C130.111 286.693 130.229 286.034 130.216 285.372C130.203 284.709 130.059 284.056 129.791 283.45C129.523 282.844 129.137 282.297 128.656 281.841C128.175 281.385 127.609 281.029 126.989 280.794C126.369 280.56 125.709 280.45 125.047 280.473C107.444 280.822 91.7322 279.77 77.9336 277.359C77.6048 277.302 77.2712 277.277 76.9375 277.285ZM32.5762 57.3692C27.5185 57.3692 23.3164 61.5713 23.3164 66.629V96.3555C23.3164 101.237 27.208 105.615 32.3008 105.615C33.5451 105.625 34.7483 105.17 35.6751 104.339C36.6019 103.509 37.1859 102.363 37.3128 101.125C37.4398 99.8871 37.1006 98.6464 36.3616 97.6452C35.6225 96.644 34.5367 95.9544 33.3164 95.711V67.3692H34.6914C35.3539 67.3786 36.0118 67.2562 36.6266 67.0091C37.2415 66.762 37.8011 66.3952 38.2729 65.93C38.7447 65.4648 39.1194 64.9104 39.3752 64.2991C39.6309 63.6878 39.7626 63.0318 39.7626 62.3692C39.7626 61.7066 39.6309 61.0505 39.3752 60.4393C39.1194 59.828 38.7447 59.2736 38.2729 58.8084C37.8011 58.3432 37.2415 57.9764 36.6266 57.7293C36.0118 57.4822 35.3539 57.3598 34.6914 57.3692H32.5762ZM35.6035 304.373C30.5108 304.373 26.6191 308.753 26.6191 313.635V343.361C26.6191 348.243 30.5123 352.619 35.6035 352.619C36.8479 352.629 38.051 352.174 38.9779 351.343C39.9047 350.513 40.4887 349.367 40.6156 348.129C40.7425 346.891 40.4034 345.65 39.6643 344.649C38.9253 343.648 37.8395 342.958 36.6191 342.715V314.283C37.8464 314.047 38.9407 313.359 39.6862 312.356C40.4318 311.353 40.7746 310.107 40.6472 308.863C40.5198 307.62 39.9313 306.469 38.9978 305.638C38.0642 304.807 36.8533 304.356 35.6035 304.373ZM67.9785 3.34966C67.1917 3.33029 66.4114 3.49692 65.7011 3.83599C62.6605 5.2337 61.0026 7.70102 59.5293 10.5782C58.0559 13.4553 56.8246 16.9914 55.6562 21.3477C55.4811 22 55.4399 22.681 55.5351 23.3497C56.0389 26.8722 57.7804 27.1495 58.6738 27.6719C59.5672 28.1944 60.3912 28.5152 61.2832 28.8125C63.0672 29.4072 65.0317 29.8311 67.1191 29.9219C68.5998 29.9863 69.463 29.8123 71.1484 29.5782C72.8338 29.344 75.0209 28.9932 77.7558 28.5235C83.2253 27.5841 90.8718 26.1651 100.732 24.2618C104.17 23.5993 106.281 21.0417 106.281 17.543V10.9786C106.291 10.316 106.168 9.65819 105.921 9.04335C105.674 8.42851 105.307 7.86891 104.842 7.39706C104.377 6.92521 103.822 6.55053 103.211 6.29479C102.6 6.03905 101.944 5.90735 101.281 5.90735C100.619 5.90735 99.9626 6.03905 99.3513 6.29479C98.74 6.55053 98.1856 6.92521 97.7204 7.39706C97.2552 7.86891 96.8884 8.42851 96.6413 9.04335C96.3943 9.65819 96.2719 10.316 96.2812 10.9786V14.918C88.0022 16.5046 80.8087 17.8529 76.0625 18.668C73.3893 19.1271 71.2767 19.4648 69.7715 19.6739C68.2663 19.883 67.047 19.9096 67.5547 19.9317C67.3491 19.9228 67.0438 19.8162 66.7851 19.7813C67.3423 18.1957 67.9223 16.1275 68.4297 15.1368C69.391 13.2596 70.2722 12.7402 69.8769 12.9219C70.916 12.4624 71.7676 11.6628 72.2915 10.6548C72.8155 9.64669 72.9806 8.49024 72.7595 7.37584C72.5385 6.26144 71.9446 5.25551 71.0756 4.5237C70.2066 3.79189 69.1143 3.37781 67.9785 3.34966ZM24.4707 149.861C23.5002 149.912 22.5841 150.081 21.582 150.252C19.5778 150.593 17.4521 151.14 15.373 151.797C13.294 152.454 11.2841 153.213 9.51951 154.055C7.75494 154.897 6.31536 155.281 4.6035 157.652C2.79544 160.155 2.00445 162.768 1.18357 165.668C0.773053 167.118 0.446369 168.527 0.281229 169.936C0.198629 170.64 0.144379 171.333 0.218729 172.207C0.293129 173.081 0.271428 174.323 1.79295 175.945C3.2256 177.473 3.60549 177.313 4.36131 177.66C5.11713 178.008 5.97463 178.339 6.98045 178.672C8.99209 179.337 11.5734 179.992 14.5644 180.418C20.5464 181.271 28.2268 181.25 35.5918 177.857C36.2003 177.591 36.7496 177.205 37.2075 176.724C37.6654 176.242 38.0228 175.674 38.2587 175.053C38.4946 174.432 38.6044 173.77 38.5815 173.106C38.5587 172.442 38.4038 171.789 38.1258 171.186C37.8478 170.582 37.4523 170.04 36.9624 169.591C36.4725 169.142 35.8981 168.795 35.2727 168.571C34.6473 168.347 33.9834 168.249 33.3199 168.284C32.6563 168.319 32.0064 168.486 31.4082 168.775C26.5041 171.035 20.6886 171.19 15.9746 170.518C13.815 170.21 12.0171 169.73 10.6094 169.289C10.6896 168.952 10.7041 168.753 10.8066 168.391C11.3734 166.389 12.4056 164.253 12.5488 163.916C12.7927 163.728 13.2547 163.354 13.8281 163.08C15.0099 162.516 16.6757 161.872 18.3847 161.332C20.0938 160.792 21.8683 160.348 23.2597 160.111C24.6512 159.874 25.8791 160.047 25.2168 159.879C26.5574 160.22 29.7325 161.655 33.875 164.219C34.4334 164.582 35.0588 164.83 35.7144 164.948C36.37 165.067 37.0426 165.053 37.6928 164.907C38.3429 164.762 38.9575 164.488 39.5003 164.102C40.0432 163.716 40.5035 163.225 40.8541 162.659C41.2046 162.092 41.4385 161.462 41.5419 160.803C41.6453 160.145 41.6162 159.473 41.4562 158.826C41.2962 158.18 41.0086 157.572 40.6103 157.038C40.212 156.504 39.711 156.055 39.1367 155.717C34.5885 152.902 31.0597 151.047 27.6816 150.188C26.4659 149.878 25.4412 149.811 24.4707 149.861Z" fill="#FE00AE"/>
</svg>
